PathFileType	4	(X/Y/Z)	C:/Users/opensim2020/Desktop/walking_exp_matlab/subject02_walking06_straight_01.trc																																																																																																																									
DataRate	CameraRate	NumFrames	NumMarkers	Units	OrigDataRate	OrigDataStartFrame	OrigNumFrames																																																																																																																					
100	100	4	41	mm	100	780	205																																																																																																																					
Frame#	Time	LFHD			RFHD			LBHD			RBHD			C7			T10			CLAV			STRN			RBAK			LSHO			LUPA			LELB			LFRM			LWRA			LWRB			LFIN			RSHO			RUPA			RELB			RFRM			RWRA			RWRB			RFIN			LASI			RASI			LPSI			RPSI			LTHI			LKNE			LTIB			LANK			LHEE			LTOE			RTHI			RKNE			RTIB			RANK			RHEE			RTOE			*39			*40		
		X1	Y1	Z1	X2	Y2	Z2	X3	Y3	Z3	X4	Y4	Z4	X5	Y5	Z5	X6	Y6	Z6	X7	Y7	Z7	X8	Y8	Z8	X9	Y9	Z9	X10	Y10	Z10	X11	Y11	Z11	X12	Y12	Z12	X13	Y13	Z13	X14	Y14	Z14	X15	Y15	Z15	X16	Y16	Z16	X17	Y17	Z17	X18	Y18	Z18	X19	Y19	Z19	X20	Y20	Z20	X21	Y21	Z21	X22	Y22	Z22	X23	Y23	Z23	X24	Y24	Z24	X25	Y25	Z25	X26	Y26	Z26	X27	Y27	Z27	X28	Y28	Z28	X29	Y29	Z29	X30	Y30	Z30	X31	Y31	Z31	X32	Y32	Z32	X33	Y33	Z33	X34	Y34	Z34	X35	Y35	Z35	X36	Y36	Z36	X37	Y37	Z37	X38	Y38	Z38	X39	Y39	Z39	X40	Y40	Z40	X41	Y41	Z41
																																																																																																																												
26	0.25	-816.78796	1729.55896	1413.93958	-832.47424	1699.36487	1554.29065	-936.35455	1643.68848	1383.745	-964.5368	1610.72205	1520.7384	-994.17877	1507.40845	1442.30566	-1061.93066	1236.12146	1448.37964	-859.7511	1433.02478	1435.34644	-816.71515	1257.99719	1438.66687	-1063.07361	1337.43274	1502.18018	-911.07941	1485.20435	1264.53137	-920.17944	1285.18616	1178.14197	-925.32294	1143.44983	1165.42468	-906.36151	1011.55524	1156.4137	-843.31232	893.30359	1196.5415	-885.97937	890.64075	1159.97937	-860.93811	830.36096	1156.91492	-924.28467	1463.19531	1630.75891	-982.56812	1281.3241	1712.24219	-989.60297	1136.20276	1734.34021	-979.24268	1018.22382	1761.34546	-947.38739	884.73077	1750.2124	-995.39233	889.74628	1779.44946	-968.62885	822.39563	1786.21423	-851.09528	955.35187	1309.47229	-822.61267	964.88965	1559.3479	-1049.58777	1013.45398	1402.61743	-1044.10376	1018.59778	1519.83069	-974.90033	652.62213	1255.85229	-1032.29053	471.13129	1270.81799	-1184.49707	357.26193	1275.11438	-1315.24207	176.3459	1297.80322	-1348.64258	184.26241	1354.89917	-1255.87354	28.91959	1300.7373	-836.35266	670.03943	1639.7334	-796.27802	466.18353	1595.21545	-816.79834	278.09109	1603.71875	-821.57776	85.6185	1569.92566	-856.98029	31.61594	1516.81348	-667.59766	35.46996	1575.40503	-934.67657	1777.59314	1494.68372	2845.00562	1033.9613	-3360.26758
27	0.26	-808.02783	1730.96082	1416.64941	-823.43323	1700.69434	1557.07935	-927.68445	1645.11719	1386.61572	-955.73993	1612.323	1523.69275	-985.36926	1508.71716	1445.28796	-1052.64929	1237.27722	1451.1156	-850.6994	1434.6123	1438.04163	-807.58307	1259.60828	1441.22852	-1053.46851	1338.09155	1504.8573	-902.50159	1486.80371	1267.39685	-912.98309	1287.36389	1180.60474	-919.47443	1145.43066	1168.14368	-902.37097	1013.36639	1158.49524	-841.46356	893.66302	1197.58997	-884.17438	892.02496	1161.20044	-859.95288	831.00885	1158.39771	-915.0014	1464.81653	1633.42981	-971.64795	1282.52332	1715.20557	-977.98761	1137.45105	1737.34521	-967.48755	1019.66901	1764.65588	-935.5022	886.09753	1753.82068	-983.48456	891.25641	1783.05981	-956.99847	823.95929	1789.73438	-841.34363	956.68262	1313.29968	-813.55457	965.90338	1562.4762	-1040.27466	1014.71307	1405.26404	-1034.60535	1019.85632	1522.604	-959.89948	651.77472	1258.17749	-1012.70203	470.23022	1272.15454	-1165.74084	359.27463	1276.68323	-1300.97119	183.75984	1301.10876	-1332.49707	193.42415	1359.00317	-1249.60046	33.04092	1301.5835	-830.50513	670.21753	1640.96826	-791.53174	466.12238	1596.32556	-814.11688	278.01108	1604.65601	-821.08246	85.66476	1570.05261	-857.026	31.64	1516.84644	-667.23627	35.48998	1575.25317	-925.64502	1778.82544	1497.62915	2845.15869	1033.95337	-3360.34351
28	0.27	-799.35907	1732.37256	1419.2356	-814.5387	1702.08606	1559.63574	-918.83807	1646.52222	1389.34729	-946.77954	1613.51001	1526.35303	-976.31207	1509.85168	1448.05505	-1043.52661	1238.5415	1453.90576	-841.7146	1436.14368	1440.57861	-798.33795	1261.1803	1443.90686	-1044.04834	1339.39209	1507.96924	-894.01068	1488.29773	1270.11255	-905.69885	1289.16064	1182.83521	-913.638	1147.20325	1170.64722	-898.48572	1015.00836	1160.13232	-838.91821	894.09875	1199.01331	-881.32703	893.01251	1162.54333	-858.78381	831.54669	1159.84351	-905.57886	1466.35254	1636.02222	-961.00305	1283.94019	1718.35046	-966.53253	1138.77283	1740.4679	-955.64563	1021.04626	1767.86719	-923.28156	887.55634	1757.38196	-971.35443	892.70251	1786.66248	-944.64465	825.20807	1793.7876	-831.98438	958.02972	1316.44446	-804.01184	966.78583	1565.62708	-1031.16431	1016.00378	1408.04822	-1025.27393	1021.23529	1525.36536	-944.19495	651.25336	1260.24792	-992.28284	469.76733	1273.42676	-1146.86487	361.98221	1278.40222	-1286.01941	191.39372	1305.64087	-1314.62024	202.00983	1364.81616	-1240.99463	38.67297	1300.38684	-825.13367	670.14056	1642.18127	-787.07458	466.01123	1597.46375	-811.6745	278.01608	1605.65002	-820.73553	85.74949	1570.18359	-857.1778	31.75614	1516.91711	-667.25	35.42439	1575.06604	-916.9469	1780.50159	1500.41907	2845.0542	1033.7821	-3360.30591
29	0.28	-790.76672	1733.80688	1421.67529	-805.72198	1703.54456	1562.04285	-910.2973	1647.88574	1391.84399	-937.96143	1614.84985	1528.93811	-967.39032	1511.20422	1450.83276	-1034.49573	1239.84424	1456.65686	-832.8429	1437.56458	1442.9845	-789.34302	1262.65308	1446.35083	-1034.78369	1340.65967	1510.98657	-885.62518	1489.68591	1272.64001	-898.81628	1290.79944	1185.16101	-908.05249	1149.02039	1172.85986	-894.62372	1016.63055	1161.77563	-836.67682	894.67853	1200.01648	-879.31586	894.79504	1163.80798	-857.61511	832.33545	1161.26355	-895.88885	1467.7688	1638.6283	-950.19537	1285.17249	1721.27502	-954.98981	1140.01392	1743.56897	-943.58942	1022.35077	1771.13269	-910.7428	888.99261	1760.87842	-958.83636	894.04138	1790.20093	-931.9834	826.70142	1797.42822	-823.00226	959.44464	1318.90527	-795.30548	967.17743	1568.08618	-1022.27942	1017.2345	1410.87854	-1016.07233	1022.59204	1528.12488	-928.3067	651.57367	1262.05701	-971.83582	469.53503	1274.77209	-1127.84973	365.50732	1280.86438	-1270.4054	198.84042	1311.47839	-1296.58618	208.38455	1372.42114	-1229.21436	44.7994	1297.43042	-819.60547	670.45911	1643.48633	-783.05804	465.82153	1598.67932	-809.27393	278.02127	1606.71729	-820.46405	85.81705	1570.43054	-857.26733	31.75514	1517.00427	-667.24396	35.37407	1575.07605	-908.24213	1781.66223	1502.9397	2845.07788	1033.97095	-3360.31909
